<svg xmlns="http://www.w3.org/2000/svg" version="1.1" viewBox="-5.0 -10.0 110.0 135.0">
  <path
    fill="currentColor"
    d="m46.57 62.531c1.8906 1.8711 4.9609 1.8711 6.8516 0l39.578-39.223c0.5-0.48828 0.87891-1.0898 1.1211-1.75-0.37109-0.58984-0.83984-1.0898-1.3789-1.5 0 0-0.011719 0-0.011719-0.011719-0.66016-0.5-1.4297-0.85938-2.2695-1.0391-0.019532 0-0.03125-0.011718-0.039063-0.011718h-0.019531c-0.32031-0.070313-0.64844-0.10156-0.98828-0.10938 0-0.011719-0.03125 0-0.050781 0h-0.019531-0.03125-0.019531-0.019531-0.03125l-78.48 0.003906h-0.03125-0.019531-0.019532-0.03125-0.019531-0.050781c-0.35156 0.011719-0.69922 0.050781-1.0391 0.12891h-0.011719c-0.011718 0-0.019531 0-0.019531 0.011719h-0.011719c-0.82031 0.17969-1.5703 0.53125-2.2188 1.0195-0.55078 0.41016-1.0312 0.92969-1.4102 1.5312 0.24219 0.63672 0.62109 1.2383 1.1211 1.7266z" />
  <path
    fill="currentColor"
    d="m5.1992 25.129c-0.070313-0.070312-0.14062-0.14062-0.19922-0.21094v50.488c0 1.5 0.58984 2.8594 1.5391 3.8789l26.66-26.422z" />
  <path
    fill="currentColor"
    d="m55.219 64.34c-2.8789 2.8516-7.5703 2.8516-10.449 0l-9.75-9.6602-26.309 26.07c0.64062 0.23828 1.3281 0.37109 2.0508 0.37109h78.469c0.78906 0 1.5508-0.16016 2.2383-0.44922l-26.359-26.121z" />
  <path
    fill="currentColor"
    d="m94.801 25.129-27.879 27.621 26.66 26.41c0.89062-1 1.4219-2.3086 1.4219-3.7383l-0.003906-50.5c-0.070312 0.066406-0.12891 0.13672-0.19922 0.20703z" />
  <!-- Letter by Dede Miftah Rusadi from Noun Project (CC BY 3.0) -->
</svg>